<svg width="12" height="12" viewBox="0 0 12 12" fill="none" xmlns="http://www.w3.org/2000/svg">
<path d="M2.96543 6.84027C3.06043 6.84027 3.15543 6.87527 3.23043 6.95027L6.00043 9.72027L8.77043 6.95027C8.91543 6.80527 9.15543 6.80527 9.30043 6.95027C9.44543 7.09527 9.44543 7.33527 9.30043 7.48027L6.26543 10.5153C6.12043 10.6603 5.88043 10.6603 5.73543 10.5153L2.70043 7.48027C2.55543 7.33527 2.55543 7.09527 2.70043 6.95027C2.77043 6.87527 2.87043 6.84027 2.96543 6.84027Z" fill="#E95F5F"/>
<path d="M6 1.37504C6.205 1.37504 6.375 1.54504 6.375 1.75004L6.375 10.165C6.375 10.37 6.205 10.54 6 10.54C5.795 10.54 5.625 10.37 5.625 10.165L5.625 1.75004C5.625 1.54504 5.795 1.37504 6 1.37504Z" fill="#E95F5F"/>
</svg>
