<svg width="12" height="12" viewBox="0 0 12 12" fill="none" xmlns="http://www.w3.org/2000/svg">
<path d="M9.03457 5.15973C8.93957 5.15973 8.84457 5.12473 8.76957 5.04973L5.99957 2.27973L3.22957 5.04973C3.08457 5.19473 2.84457 5.19473 2.69957 5.04973C2.55457 4.90473 2.55457 4.66473 2.69957 4.51973L5.73457 1.48473C5.87957 1.33973 6.11957 1.33973 6.26457 1.48473L9.29957 4.51973C9.44457 4.66473 9.44457 4.90473 9.29957 5.04973C9.22957 5.12473 9.12957 5.15973 9.03457 5.15973Z" fill="#20C8B1"/>
<path d="M6 10.625C5.795 10.625 5.625 10.455 5.625 10.25V1.83496C5.625 1.62996 5.795 1.45996 6 1.45996C6.205 1.45996 6.375 1.62996 6.375 1.83496V10.25C6.375 10.455 6.205 10.625 6 10.625Z" fill="#20C8B1"/>
</svg>
